<svg xmlns="http://www.w3.org/2000/svg" viewBox="0 0 64 64" fill="none">
  <defs>
    <linearGradient id="g" x1="0" y1="0" x2="0" y2="1">
      <stop offset="0" stop-color="#ffffff" stop-opacity="0.95"/>
      <stop offset="1" stop-color="#d9d9d9" stop-opacity="0.9"/>
    </linearGradient>
  </defs>
  <path d="M32 6c-9.94 0-18 8.06-18 18v26c0 2.21 2.69 3.32 4.27 1.73l3.46-3.46a2 2 0 0 1 2.83 0l2.34 2.34a2 2 0 0 0 2.83 0l2.34-2.34a2 2 0 0 1 2.83 0l2.34 2.34a2 2 0 0 0 2.83 0l3.46-3.46C47.31 53.32 50 52.21 50 50V24C50 14.06 41.94 6 32 6z" fill="url(#g)"/>
  <circle cx="24" cy="26" r="3" fill="#0a0a0b"/>
  <circle cx="40" cy="26" r="3" fill="#0a0a0b"/>
  <path d="M24 34c2.5 2 13.5 2 16 0" stroke="#0a0a0b" stroke-width="2" stroke-linecap="round"/>
</svg>

